<?xml version="1.0" encoding="utf-8"?>
<!-- Generator: Adobe Illustrator 26.3.0, SVG Export Plug-In . SVG Version: 6.00 Build 0)  -->
<svg version="1.1" id="Camada_1" xmlns="http://www.w3.org/2000/svg" xmlns:xlink="http://www.w3.org/1999/xlink" x="0px" y="0px"
	 viewBox="0 0 500 500" style="enable-background:new 0 0 500 500;" xml:space="preserve">
<style type="text/css">
	.st0{fill:#48B05F;}
</style>
<g>
	<g>
		<g>
			<path class="st0" d="M87.4,462.6H72.1c0-37.2,35-52.8,68.8-68c35-15.6,68-30.4,68-66.4h15.3c0,45.9-40.9,64.1-77,80.2
				C115.1,423,87.4,435.4,87.4,462.6z"/>
		</g>
		<g>
			<path class="st0" d="M427.9,462.6h-15.3c0-27.3-27.7-39.6-59.8-54c-36.1-16.1-77-34.4-77-80.2h15.3c0,36,33,50.7,68,66.4
				C392.9,409.9,427.9,425.4,427.9,462.6z"/>
		</g>
		<g>
			<path class="st0" d="M332.9,452H167.1c-15.2,0-28.9-9-35-23.1l-7.9-18.5l14-6l7.9,18.5c3.6,8.4,11.8,13.8,20.9,13.8h165.8
				c9.1,0,17.3-5.4,20.9-13.8l7.9-18.5l14,6l-7.9,18.5C361.9,443,348.1,452,332.9,452z"/>
		</g>
	</g>
	<g>
		<path class="st0" d="M334.4,306.9c-5.5,0-10.8-0.6-15.7-1.4l2.4-15.1c26.6,4.2,34.5-3.7,39.1-12.8c3.5-7,3.1-13.1,1.7-27.3
			c-0.4-4-0.8-8.6-1.2-13.7c-1.5-20.3,1.8-31.3,4.8-40.9c2.4-8,4.6-15,4.3-27.3c-0.2-5.3-2.4-52.5-39.7-80.9
			c-19.4-14.7-46-20.3-54.7-21.2l-1.8-0.2l-1.5-0.9c-12.1-7.5-25.1-11.7-38.5-12.5C184,49.5,155.9,77.8,146,90.1
			c-19.7,24.6-26.7,51.7-20.8,80.5l0.6,2.8c1.3,5.8,3.3,14.5,2.7,26.4c-0.6,12.2-3.5,20-5.9,26.3c-1.3,3.4-2.3,6.2-2.6,8.8
			c-0.6,6,1.7,22.3,12.7,34.5c9.9,11.1,24.7,16.6,44.1,16.6v15.3c-23.8,0-42.5-7.3-55.4-21.7c-14-15.6-17.6-36.2-16.5-46.3
			c0.5-4.5,1.9-8.4,3.4-12.4c2.1-5.6,4.4-11.9,5-21.8c0.5-9.8-1.1-17-2.3-22.2l-0.7-3.1c-6.8-33.4,1.3-64.7,23.9-93.1
			c8.8-11,42.1-46.7,100.6-43.1c15.3,0.9,30.2,5.7,44.1,13.9c13.1,1.8,40.2,8.6,60.5,24.1c43.1,32.6,45.6,86.7,45.7,92.7
			c0.4,14.8-2.3,23.6-5,32.1c-2.8,9.2-5.4,17.9-4.2,35.4c0.4,5,0.8,9.4,1.2,13.3c1.5,14.7,2.4,24.4-3.2,35.7
			C364.9,302.5,349.2,306.9,334.4,306.9z"/>
	</g>
	<g>
		<path class="st0" d="M250,343.6c-49.9,0-92.2-43.1-103.2-104.8l-0.8-4.3l3.3-2.8c25.9-22.4,29.6-39.9,32.1-62.1
			c0.7-6.3,1.2-11.9,1.6-17c1.7-19.9,2.8-32.9,14.4-49.1c3.1-4.3,12.4-17.3,28-19.9c17.1-2.9,33.1,1.2,46.2,11.9
			c15.4,12.6,26.6,34.1,31.8,59.9c3.7-12.7,2.3-22.1,1.5-28.1c-0.8-5.2-1.8-12.4,4.7-15.7c4.2-2.1,10.2-1.4,16.1,2.1
			c8.7,5.1,23.4,19.5,27,59.7c13.5,2.7,23.6,17.4,23.6,35.7c0,18.6-10.5,33.6-24.4,35.9C339.3,303.4,298.1,343.6,250,343.6z
			 M162.7,240.3c10.5,51.2,46.7,88,87.3,88c41.6,0,78.7-38.8,88.1-92.2l1.3-7.5l8.2,1.4c7.4,0,13.4-9.7,13.4-20.8
			c0-11.1-6-20.9-12.9-20.9l-1.1,0.2l-8.6,1.5l-0.5-8.6c-1.8-33.1-11-47.4-17.4-52.8c1.5,11.4,2.3,31.5-15.2,58.1l-13.2,20l-0.8-24
			c-1.1-32.8-12.3-61.6-29.2-75.4c-9.7-7.9-21.2-10.8-34-8.7c-9.5,1.6-16,10.8-18.2,13.7c-9.2,12.8-10.1,22.9-11.6,41.5
			c-0.5,5.2-0.9,10.9-1.7,17.4C194.1,194.4,189.7,215.5,162.7,240.3z"/>
	</g>
</g>
</svg>
