<?xml version="1.0" encoding="utf-8"?>
<!-- Generator: Adobe Illustrator 26.3.0, SVG Export Plug-In . SVG Version: 6.00 Build 0)  -->
<svg version="1.1" id="Camada_1" xmlns="http://www.w3.org/2000/svg" xmlns:xlink="http://www.w3.org/1999/xlink" x="0px" y="0px"
	 viewBox="0 0 500 500" style="enable-background:new 0 0 500 500;" xml:space="preserve">
<style type="text/css">
	.st0{fill:#48B05F;}
</style>
<g>
	<g>
		<g>
			<g>
				<path class="st0" d="M87.4,466.3H72.1c0-49.6,34.4-58.6,64.8-66.6c10.2-2.7,20.8-5.4,30.1-9.6l6.3,13.9
					c-10.5,4.7-21.7,7.6-32.5,10.5C111,422.3,87.4,428.4,87.4,466.3z"/>
			</g>
			<g>
				<path class="st0" d="M210,366.7l-14.2-5.6c3.5-9,5.3-20.2,5.3-33.4h15.3C216.3,343.1,214.3,355.8,210,366.7z"/>
			</g>
		</g>
	</g>
	<g>
		<path class="st0" d="M218.6,341.2c-36-14.1-63.5-52-71.8-98.8l15-2.7c7.3,41.6,31.2,75.1,62.3,87.3L218.6,341.2z"/>
	</g>
	<g>
		<path class="st0" d="M281.3,341.2l-5.6-14.2c31.2-12.2,55.1-45.7,62.4-87.3l15,2.7C344.9,289.2,317.3,327.1,281.3,341.2z"/>
	</g>
	<g>
		<path class="st0" d="M347.6,258.4c-8.2,0-15.8-4-20.1-7.3l-3.7-2.8l9.8-53.9c-3.9-7.4-12.5-26-7.3-38.4c2.6-6.2,4.5-12.7,5.7-17
			c-11.5-6.6-43.8-22.7-82-22.7c-38.4,0-70.5,16.1-82,22.7c1.2,4.4,3.1,10.8,5.7,17c5.2,12.4-3.4,31-7.3,38.4l9.8,53.9l-3.7,2.8
			c-6.4,5-20.5,11.5-32.5,3.7l-3-1.9l-7.6-58.9c-1.9-26.2-4-88.6,15.6-112.6c25.2-30.8,62.4-47.7,104.8-47.7
			c42.5,0,79.7,17,104.8,47.7c19.5,24,17.5,86.4,15.7,112.2l-7.6,59.3l-3,1.9C355.9,257.4,351.7,258.4,347.6,258.4z M340.6,241.2
			c2.3,1.1,5.3,2.1,8.1,1.8l6.6-51c3.4-48.6-1.2-87.5-12.2-101c-22.5-27.6-54.7-42.1-93-42.1s-70.5,14.6-93,42.1
			c-11,13.4-15.7,52.3-12.2,101.4l6.5,50.5c2.7,0.4,5.8-0.7,8.1-1.8l-8.9-49.6l1.4-2.4c4.7-8.2,10-22.2,7.9-27.4
			c-5-12-7.8-24.3-7.9-24.8l-1.1-5.1l4.4-2.9c1.7-1.1,42.5-28,95.1-28s93.3,26.9,95.1,28l4.4,2.9l-1.1,5.1
			c-0.2,0.5-2.9,12.8-7.9,24.8c-2.1,5.2,3.1,19.2,7.9,27.4l1.4,2.4L340.6,241.2z"/>
	</g>
	<g>
		<path class="st0" d="M250,371.6c-24.1,0-39.5-36.9-39.5-52.5c0-5.5,1.7-9.8,4.9-13c5.9-5.6,14.4-5,24.4-4.5c6.4,0.4,14,0.4,20.4,0
			c9.9-0.6,18.5-1.1,24.4,4.5c3.3,3.1,4.9,7.4,4.9,13C289.5,334.7,274.1,371.6,250,371.6z M225.9,317.3c0,0.1-0.2,0.6-0.2,1.8
			c0,11.4,12.4,37.2,24.2,37.2s24.2-25.8,24.2-37.2c0-1.5-0.2-2-0.2-2c-1.4-0.8-8.2-0.5-12.8-0.2c-6.9,0.4-15.3,0.4-22.1,0
			C234.3,316.7,227.6,316.3,225.9,317.3z"/>
	</g>
	<g>
		<path class="st0" d="M220.4,443.7L158.5,398l43.1-43.6l59.6,35.1L220.4,443.7z M181.8,396.1l35.5,26.3l21.5-28.5l-34.6-20.4
			L181.8,396.1z"/>
	</g>
	<g>
		<g>
			<g>
				<path class="st0" d="M427.9,466.3h-15.3c0-37.9-23.6-44-53.4-51.8c-10.8-2.8-22.1-5.7-32.5-10.5l6.3-13.9
					c9.2,4.2,19.9,6.9,30.1,9.6C393.4,407.7,427.9,416.6,427.9,466.3z"/>
			</g>
			<g>
				<path class="st0" d="M290,366.7c-4.3-10.9-6.3-23.7-6.3-38.9h15.3c0,13.1,1.8,24.4,5.3,33.4L290,366.7z"/>
			</g>
		</g>
	</g>
	<g>
		<path class="st0" d="M279.6,443.7l-40.8-54.2l59.6-35.1l43.1,43.6L279.6,443.7z M261.2,394l21.5,28.5l35.5-26.3l-22.3-22.6
			L261.2,394z"/>
	</g>
</g>
</svg>
