<?xml version="1.0" encoding="utf-8"?>
<!-- Generator: Adobe Illustrator 26.3.0, SVG Export Plug-In . SVG Version: 6.00 Build 0)  -->
<svg version="1.1" id="Camada_1" xmlns="http://www.w3.org/2000/svg" xmlns:xlink="http://www.w3.org/1999/xlink" x="0px" y="0px"
	 viewBox="0 0 500 500" style="enable-background:new 0 0 500 500;" xml:space="preserve">
<style type="text/css">
	.st0{fill:#48B05F;}
</style>
<g>
	<g>
		<g>
			<g>
				<path class="st0" d="M72,459.2l-15.1-2.1c3.4-25.4,17.3-46,21.8-50.7l1.1-1.1l1.5-0.6c5.3-2.2,13.4-3.5,23.4-5.2
					c25.6-4.2,64.3-10.6,83.8-36.9l12.3,9.1c-23.1,31.2-65.5,38.3-93.5,42.8c-7.7,1.3-14.4,2.4-18.6,3.7C85.1,423,74.7,439,72,459.2
					z"/>
			</g>
		</g>
	</g>
	<g>
		<g>
			<g>
				<path class="st0" d="M427.9,459.2c-2.7-20.2-13.1-36.3-16.6-40.8c-4.1-1.3-10.8-2.4-18.6-3.7c-28-4.7-70.4-11.6-93.5-42.8
					l12.3-9.1c19.4,26.3,58.1,32.7,83.8,36.9c10.1,1.7,18,3,23.4,5.2l1.5,0.6l1.1,1.1c4.7,4.7,18.5,25.2,21.8,50.7L427.9,459.2z"/>
			</g>
		</g>
	</g>
	<g>
		<path class="st0" d="M250,405.4c-49.7,0-102.8-64.7-102.8-161c0-2.9,0-10.7,6.3-13.5c6.4-2.9,11.6,1.8,18.2,7.7
			c5.7,5,13,11.6,21.1,14.4c6.3-9.5,22.8-27.6,57.2-27.6s50.9,18.1,57.2,27.6c8.2-2.7,15.6-9.3,21.1-14.4
			c6.6-5.9,11.8-10.5,18.2-7.7c6.3,2.8,6.3,10.5,6.3,13.5C352.8,340.7,299.7,405.4,250,405.4z M162.5,251
			c2.2,82.4,47.1,139.2,87.5,139.2c40.4,0,85.3-56.8,87.5-139.2c-7.7,6.9-19,16.6-33.3,18.2l-5.7,0.7l-2.2-5.3
			c-0.4-0.9-11-24-46.3-24s-45.9,23.1-46.3,24.1l-2.3,5.2l-5.7-0.6C181.5,267.5,170.2,257.8,162.5,251z"/>
	</g>
	<g>
		<path class="st0" d="M348.1,241c-1.1,0-2.3-0.2-3.4-0.4l0.2-1.5l-7.9-1.8c0.4-1.8,0.8-3.7,1.1-5.7l1.3-7.5l8.9,1.5
			c6.7,0,12.8-9.8,12.8-20.9s-6-20.9-12.9-20.9l-8.7,1.5L338,178c-2.5-14.2-6.9-27.4-13.1-39.5c-20.2,8.6-44.8,8.5-70.9,8.6h-4.1
			h-4.1c-26.2,0-50.8,0.1-70.9-8.6c-6.2,12.1-10.5,25.3-13.1,39.5l-1.3,7.5l-8.9-1.5c-6.7,0-12.8,9.8-12.8,20.9s6,20.9,12.9,20.9
			l8.7-1.5l1.3,7.5c0.3,1.9,0.7,3.8,1.1,5.7l-7.6,1.6l0.3,1.5c-1.6,0.3-2.7,0.5-3.8,0.5c-15.8,0-28.2-15.9-28.2-36.2
			c0-18.6,10.5-33.6,24.4-35.9c3.4-16,9.2-30.9,17-44.4l3.8-6.5l6.6,3.7c17.8,10,42.1,10,70.3,10h4.1h4.1c28.3,0,52.5,0.1,70.4-10
			l6.6-3.7l3.8,6.5c7.9,13.4,13.6,28.3,17,44.4c14,2.3,24.4,17.2,24.4,35.9C376.3,225.1,363.9,241,348.1,241z"/>
	</g>
	<g>
		<path class="st0" d="M352.3,180.5L339,173c8.9-16,9.8-48.9-4.7-74.3C316,66.4,269.6,55.9,250,55.9s-66,10.5-84.4,42.8
			c-14.4,25.3-13.6,58.3-4.7,74.3l-13.3,7.5c-11.1-19.7-13.2-57.7,4.7-89.3C175.7,50,232,40.8,250,40.8s74.3,9.2,97.7,50.5
			C365.5,122.8,363.3,160.7,352.3,180.5z"/>
	</g>
	<g>
		<rect x="242.3" y="416" class="st0" width="15.3" height="13.7"/>
	</g>
	<g>
		<rect x="242.3" y="444.6" class="st0" width="15.3" height="13.7"/>
	</g>
</g>
</svg>
