<?xml version="1.0" encoding="utf-8"?>
<!-- Generator: Adobe Illustrator 26.3.0, SVG Export Plug-In . SVG Version: 6.00 Build 0)  -->
<svg version="1.1" id="Camada_1" xmlns="http://www.w3.org/2000/svg" xmlns:xlink="http://www.w3.org/1999/xlink" x="0px" y="0px"
	 viewBox="0 0 500 500" style="enable-background:new 0 0 500 500;" xml:space="preserve">
<style type="text/css">
	.st0{fill:#48B05F;}
</style>
<g>
	<g>
		<g>
			<g>
				<path class="st0" d="M250,347.9c-48.1,0-89.3-40.2-101.9-98.5c-14-2.3-24.4-17.2-24.4-35.9c0-18.6,10.5-33.6,24.4-35.9
					c1.5-6.9,3.4-13.4,5.8-19.8l14.3,5.4c-2.7,7.3-4.9,15.2-6.3,23.4l-1.3,7.6l-8.9-1.6c-6.7,0-12.8,9.8-12.8,20.9s6,20.9,12.9,20.9
					l8.7-1.5l1.3,7.5c9.4,53.4,46.5,92.2,88.1,92.2s78.7-38.8,88.1-92.2l1.3-7.5l8.9,1.5c6.7,0,12.8-9.8,12.8-20.9
					s-6-20.9-12.9-20.9l-1.1,0.2l-7.6,1.4l-1.3-7.6c-1.5-8.2-3.6-16-6.3-23.4l14.3-5.4c2.4,6.3,4.4,12.9,5.8,19.8
					c14,2.3,24.4,17.2,24.4,35.9c0,18.6-10.5,33.6-24.4,35.9C339.3,307.8,298.1,347.9,250,347.9z"/>
			</g>
			<g>
				<path class="st0" d="M87.4,467H72.1c0-37.2,35-52.8,68.8-68c35-15.6,68-30.4,68-66.4h15.3c0,45.9-40.9,64.1-77,80.2
					C115.1,427.3,87.4,439.7,87.4,467z"/>
			</g>
			<g>
				<path class="st0" d="M427.9,467h-15.3c0-27.3-27.7-39.6-59.8-54c-36.1-16.1-77-34.4-77-80.2h15.3c0,36,33,50.7,68,66.4
					C392.9,414.2,427.9,429.8,427.9,467z"/>
			</g>
		</g>
		<g>
			<path class="st0" d="M373.7,416.4l-12.2-9.2c40.7-53.8,53.5-193.5,10.5-279.9c-26-52.4-67.1-78.9-122-78.9
				c-55,0-96,26.6-122,78.9c-43,86.4-30.2,226.2,10.5,279.9l-12.2,9.2c-43.5-57.5-58.6-202.3-12.1-295.9
				C142.6,63.3,189.6,33,249.9,33s107.3,30.2,135.8,87.4C432.3,214.1,417.2,358.9,373.7,416.4z"/>
		</g>
		<path class="st0" d="M340.7,160.7c2.7-17.9-2-37.5-6.6-56.5c9.3,17.3,19.2,34.9,21.9,56.5l0.9,7.6h-17.3L340.7,160.7z"/>
		<g>
			<path class="st0" d="M348.3,168.3H181.8c-38.5,0-38.5,0-38.5-7.6h15.3H151l0.1-7.6c2.4,0,195.3,0,197.2,0L348.3,168.3
				L348.3,168.3z"/>
		</g>
		<path class="st0" d="M165.9,104.2c-4.7,19.1-10,38.8-7.3,56.5l1.1,7.6h-17.3l0.9-7.6c1.3-10.8,4.7-20.8,8.9-30
			C156.4,121.5,161.3,112.8,165.9,104.2z"/>
		<path class="st0" d="M201.7,109.5c-1,8.6-1.1,17.3-0.8,25.8c0.4,8.5,1.1,17.2,2.5,25.2l-15.3,0.3c1.2-9.2,3-17.7,5.2-26.3
			C195.6,125.9,198.2,117.5,201.7,109.5z"/>
	</g>
	<g>
		<path class="st0" d="M250,455.5c-39.3,0-71.3-32-71.3-71.3H194c0,30.9,25.1,56,56,56s56-25.1,56-56h15.3
			C321.3,423.5,289.3,455.5,250,455.5z"/>
	</g>
</g>
</svg>
