<svg width="371" height="52" viewBox="0 0 371 52" fill="none" xmlns="http://www.w3.org/2000/svg">
<g clip-path="url(#clip0_307_220)">
<path d="M171.882 0.714844H3.59484C2.00654 0.714844 0.718971 1.99512 0.718971 3.57443V47.898C0.718971 49.4773 2.00654 50.7576 3.59484 50.7576H171.882C173.47 50.7576 174.758 49.4773 174.758 47.898V3.57443C174.758 1.99512 173.47 0.714844 171.882 0.714844Z" stroke="white" stroke-width="0.5"/>
<path d="M62.9934 13.4797C62.9934 14.4647 62.7458 15.3266 62.1267 15.9422C61.3837 16.6809 60.517 17.0503 59.4026 17.0503C58.2882 17.0503 57.4214 16.6809 56.6785 15.9422C55.9356 15.2034 55.5641 14.3416 55.5641 13.2335C55.5641 12.1254 55.9356 11.2636 56.6785 10.5248C57.4214 9.78614 58.2882 9.41675 59.4026 9.41675C59.8979 9.41675 60.3932 9.53985 60.8884 9.78613C61.3837 10.0323 61.7552 10.2786 62.0028 10.6479L61.3837 11.2635C60.8884 10.6479 60.2693 10.4017 59.4026 10.4017C58.6596 10.4017 57.9167 10.6479 57.4214 11.2635C56.8023 11.756 56.5547 12.4948 56.5547 13.3566C56.5547 14.2185 56.8023 14.9572 57.4214 15.4497C58.0405 15.9422 58.6596 16.3115 59.4026 16.3115C60.2693 16.3115 60.8884 16.0653 61.5076 15.4497C61.879 15.0803 62.1267 14.5878 62.1267 13.9722H59.4026V13.1104H62.9934C62.9934 13.1104 62.9934 13.2335 62.9934 13.4797Z" fill="white" stroke="white" stroke-width="0.2" stroke-miterlimit="10"/>
<path d="M68.6898 10.4017H65.3466V12.741H68.4421V13.6029H65.3466V15.9422H68.6898V16.804H64.356V9.41675H68.6898V10.4017Z" fill="white" stroke="white" stroke-width="0.2" stroke-miterlimit="10"/>
<path d="M72.776 16.804H71.7852V10.2786H69.6802V9.41675H74.8805V10.2786H72.776V16.804Z" fill="white" stroke="white" stroke-width="0.2" stroke-miterlimit="10"/>
<path d="M78.4717 16.804V9.41675H79.4617V16.804H78.4717Z" fill="white" stroke="white" stroke-width="0.2" stroke-miterlimit="10"/>
<path d="M83.672 16.804H82.682V10.2786H80.5769V9.41675H85.6535V10.2786H83.5484V16.804H83.672Z" fill="white" stroke="white" stroke-width="0.2" stroke-miterlimit="10"/>
<path d="M95.4351 15.9422C94.6924 16.6809 93.8253 17.0503 92.7109 17.0503C91.5965 17.0503 90.7301 16.6809 89.9867 15.9422C89.244 15.2034 88.8723 14.3416 88.8723 13.2335C88.8723 12.1254 89.244 11.2636 89.9867 10.5248C90.7301 9.78614 91.5965 9.41675 92.7109 9.41675C93.8253 9.41675 94.6924 9.78614 95.4351 10.5248C96.1777 11.2636 96.5495 12.1254 96.5495 13.2335C96.5495 14.2185 96.1777 15.2034 95.4351 15.9422ZM90.7301 15.3266C91.2255 15.8191 91.9682 16.1884 92.7109 16.1884C93.4543 16.1884 94.197 15.9422 94.6924 15.3266C95.1877 14.8341 95.5587 14.0954 95.5587 13.2335C95.5587 12.3716 95.3114 11.6329 94.6924 11.1404C94.197 10.6479 93.4543 10.2786 92.7109 10.2786C91.9682 10.2786 91.2255 10.5248 90.7301 11.1404C90.2348 11.6329 89.8631 12.3716 89.8631 13.2335C89.8631 13.9722 90.1111 14.711 90.7301 15.3266Z" fill="white" stroke="white" stroke-width="0.2" stroke-miterlimit="10"/>
<path d="M97.9119 16.804V9.41675H99.0263L102.617 15.2034V13.726V9.41675H103.608V16.804H102.617L98.7783 10.7711V12.2485V16.804H97.9119Z" fill="white" stroke="white" stroke-width="0.2" stroke-miterlimit="10"/>
<path d="M88.6243 27.6387C85.6528 27.6387 83.3003 29.8549 83.3003 32.9329C83.3003 35.8878 85.6528 38.2271 88.6243 38.2271C91.5957 38.2271 93.9489 36.0109 93.9489 32.9329C93.9489 29.8549 91.5957 27.6387 88.6243 27.6387ZM88.6243 36.0109C87.0145 36.0109 85.6528 34.6566 85.6528 32.8098C85.6528 30.963 87.0145 29.6087 88.6243 29.6087C90.234 29.6087 91.5957 30.8399 91.5957 32.8098C91.5957 34.7797 90.234 36.0109 88.6243 36.0109ZM77.1086 27.6387C74.1371 27.6387 71.7845 29.8549 71.7845 32.9329C71.7845 35.8878 74.1371 38.2271 77.1086 38.2271C80.0808 38.2271 82.4332 36.0109 82.4332 32.9329C82.4332 29.8549 80.0808 27.6387 77.1086 27.6387ZM77.1086 36.0109C75.4995 36.0109 74.1371 34.6566 74.1371 32.8098C74.1371 30.963 75.4995 29.6087 77.1086 29.6087C78.7183 29.6087 80.0808 30.8399 80.0808 32.8098C80.0808 34.7797 78.7183 36.0109 77.1086 36.0109ZM63.3646 29.2393V31.4555H68.6889C68.5651 32.6867 68.0698 33.6716 67.4507 34.2872C66.7078 35.0259 65.4695 35.8878 63.3646 35.8878C60.0214 35.8878 57.5449 33.3023 57.5449 29.9781C57.5449 26.6538 60.1452 24.0682 63.3646 24.0682C65.0981 24.0682 66.4601 24.8069 67.4507 25.6688L69.0604 24.0682C67.6983 22.837 65.9648 21.8521 63.4884 21.8521C59.0308 21.8521 55.1923 25.5457 55.1923 29.9781C55.1923 34.4104 59.0308 38.104 63.4884 38.104C65.9648 38.104 67.6983 37.3653 69.1842 35.7647C70.6701 34.2872 71.1653 32.1942 71.1653 30.5937C71.1653 30.1012 71.1654 29.6087 71.0415 29.2393H63.3646ZM119.58 30.963C119.085 29.7318 117.846 27.6387 115.123 27.6387C112.398 27.6387 110.17 29.7318 110.17 32.9329C110.17 35.8878 112.398 38.2271 115.37 38.2271C117.722 38.2271 119.208 36.7497 119.704 35.8878L117.97 34.6566C117.351 35.5184 116.608 36.134 115.37 36.134C114.132 36.134 113.388 35.6416 112.769 34.5335L119.827 31.5786L119.58 30.963ZM112.398 32.6867C112.398 30.7168 114.008 29.6087 115.123 29.6087C115.989 29.6087 116.856 30.1012 117.103 30.7168L112.398 32.6867ZM106.578 37.7346H108.931V22.3445H106.578V37.7346ZM102.864 28.7468C102.244 28.1312 101.254 27.5156 100.016 27.5156C97.4158 27.5156 94.9389 29.8549 94.9389 32.8098C94.9389 35.7647 97.2921 37.9809 100.016 37.9809C101.254 37.9809 102.244 37.3653 102.74 36.7497H102.864V37.4884C102.864 39.4583 101.75 40.5664 100.016 40.5664C98.6539 40.5664 97.6631 39.5815 97.4158 38.7196L95.4343 39.5815C96.0534 40.9358 97.5395 42.6595 100.14 42.6595C102.864 42.6595 105.093 41.0589 105.093 37.2422V27.885H102.864V28.7468ZM100.14 36.0109C98.5302 36.0109 97.1677 34.6566 97.1677 32.8098C97.1677 30.963 98.5302 29.6087 100.14 29.6087C101.75 29.6087 102.988 30.963 102.988 32.8098C102.988 34.6566 101.75 36.0109 100.14 36.0109ZM130.352 22.3445H124.78V37.7346H127.133V31.948H130.352C132.952 31.948 135.429 30.1012 135.429 27.1463C135.429 24.1913 132.952 22.3445 130.352 22.3445ZM130.476 29.8549H127.133V24.5607H130.476C132.21 24.5607 133.2 26.0382 133.2 27.1463C133.077 28.3775 132.086 29.8549 130.476 29.8549ZM144.716 27.6387C142.982 27.6387 141.248 28.3775 140.629 29.9781L142.734 30.8399C143.23 29.9781 143.973 29.7318 144.84 29.7318C146.078 29.7318 147.192 30.4706 147.316 31.7018V31.8249C146.945 31.5786 145.954 31.2093 144.963 31.2093C142.734 31.2093 140.506 32.4405 140.506 34.6566C140.506 36.7497 142.363 38.104 144.344 38.104C145.954 38.104 146.697 37.3653 147.316 36.6266H147.439V37.8578H149.668V31.948C149.421 29.1162 147.316 27.6387 144.716 27.6387ZM144.468 36.0109C143.725 36.0109 142.611 35.6416 142.611 34.6566C142.611 33.4254 143.973 33.0561 145.087 33.0561C146.078 33.0561 146.573 33.3023 147.192 33.5485C146.945 35.026 145.706 36.0109 144.468 36.0109ZM157.469 27.885L154.869 34.5335H154.746L152.021 27.885H149.545L153.631 37.2422L151.278 42.4133H153.631L159.946 27.885H157.469ZM136.667 37.7346H139.02V22.3445H136.667V37.7346Z" fill="white"/>
<path d="M16.5602 40.8127C16.0649 40.5665 15.8173 39.9509 15.8173 39.3353C15.8173 39.2121 15.8173 38.9659 15.8173 38.8428C15.8173 29.7319 15.8173 20.6209 15.8173 11.633C15.8173 11.1405 15.9411 10.7712 16.0649 10.2787C16.1888 10.0325 16.4364 9.78625 16.6841 9.54004C22.0084 14.8342 27.2089 20.1284 32.4094 25.4226C27.0851 30.3474 21.8846 35.5185 16.5602 40.8127Z" fill="white"/>
<path d="M37.6097 20.0052C36.1238 21.4827 34.5141 22.9601 33.0283 24.5607C28.0754 19.5127 22.9987 14.4648 18.0458 9.41681C18.0458 9.41681 18.0458 9.2937 18.1696 9.2937C24.6084 12.8642 31.0471 16.4347 37.6097 20.0052Z" fill="white"/>
<path d="M18.0458 40.8126C22.9987 35.8877 28.0754 30.9629 33.0283 26.0381C34.3903 27.3924 35.8762 28.7468 37.4859 30.2242C31.0471 33.7947 24.6084 37.3652 18.1696 40.8126H18.0458Z" fill="white"/>
<path d="M38.3531 29.7316C36.7434 28.2542 35.2576 26.7767 33.6479 25.2993C35.2576 23.6987 36.8673 22.0981 38.4769 20.4976C38.9722 20.7438 39.4675 20.9901 39.9628 21.3594C41.201 22.0981 42.5631 22.7137 43.8013 23.4524C44.1728 23.5755 44.4204 23.8218 44.668 24.1911C45.1633 24.8067 45.1633 25.4224 44.668 26.038C44.4204 26.2842 44.1728 26.5305 43.8013 26.6536C42.0678 27.7617 40.2105 28.7467 38.3531 29.7316Z" fill="white"/>
</g>
<g clip-path="url(#clip1_307_220)">
<path d="M366.811 0.714844H201.502C199.942 0.714844 198.677 1.99512 198.677 3.57443V47.898C198.677 49.4773 199.942 50.7576 201.502 50.7576H366.811C368.371 50.7576 369.636 49.4773 369.636 47.898V3.57443C369.636 1.99512 368.371 0.714844 366.811 0.714844Z" stroke="white" stroke-width="0.5"/>
<path d="M238.795 24.5332C238.762 20.5747 241.998 18.6452 242.149 18.559C240.315 15.8537 237.472 15.4824 236.47 15.4558C234.079 15.2039 231.766 16.9013 230.548 16.9013C229.31 16.9013 227.437 15.4824 225.413 15.5222C222.812 15.5619 220.382 17.087 219.052 19.4475C216.301 24.268 218.351 31.3495 220.991 35.2483C222.308 37.1579 223.847 39.2864 225.865 39.2134C227.836 39.1338 228.576 37.9403 230.954 37.9403C233.312 37.9403 234.007 39.2134 236.063 39.167C238.179 39.1338 239.515 37.2507 240.786 35.3279C242.312 33.1398 242.922 30.9848 242.948 30.8787C242.895 30.8456 238.834 29.2741 238.795 24.5332ZM234.911 12.8898C235.972 11.5438 236.699 9.72036 236.496 7.86377C234.963 7.93004 233.037 8.9379 231.937 10.2508C230.961 11.4112 230.083 13.3075 230.312 15.0912C232.028 15.2171 233.804 14.2093 234.911 12.8898Z" fill="white"/>
<path d="M267.367 38.9284H264.61L263.097 34.1278H257.85L256.409 38.9284H253.723L258.924 22.5773H262.134L267.367 38.9284ZM262.645 32.1121L261.276 27.842C261.132 27.4044 260.856 26.3766 260.463 24.7588H260.417C260.26 25.455 259.998 26.4827 259.651 27.842L258.308 32.1121H262.645ZM280.717 32.8879C280.717 34.8904 280.18 36.4751 279.106 37.6421C278.142 38.6765 276.944 39.1937 275.516 39.1937C273.97 39.1937 272.863 38.6367 272.189 37.5227V43.7092H269.601V31.0115C269.601 29.7517 269.569 28.4586 269.503 27.1392H271.782L271.927 29.009H271.972C272.837 27.6033 274.147 26.8938 275.902 26.8938C277.278 26.8938 278.424 27.4442 279.342 28.5449C280.258 29.6456 280.717 31.0977 280.717 32.8879ZM278.084 32.9874C278.084 31.8403 277.828 30.8921 277.318 30.1495C276.76 29.3737 276.008 28.9891 275.064 28.9891C274.429 28.9891 273.846 29.2079 273.328 29.6323C272.811 30.0633 272.47 30.6269 272.313 31.3164C272.241 31.5751 272.202 31.8469 272.195 32.1121V34.0814C272.195 34.9368 272.457 35.6595 272.975 36.2563C273.492 36.8464 274.167 37.1448 274.998 37.1448C275.974 37.1448 276.734 36.7602 277.278 36.0044C277.808 35.2352 278.084 34.2339 278.084 32.9874ZM294.119 32.8879C294.119 34.8904 293.582 36.4751 292.507 37.6421C291.545 38.6765 290.346 39.1937 288.918 39.1937C287.372 39.1937 286.265 38.6367 285.591 37.5227V43.7092H283.003V31.0115C283.003 29.7517 282.97 28.4586 282.905 27.1392H285.184L285.329 29.009H285.374C286.239 27.6033 287.549 26.8938 289.305 26.8938C290.68 26.8938 291.827 27.4442 292.743 28.5449C293.654 29.6456 294.119 31.0977 294.119 32.8879ZM291.479 32.9874C291.479 31.8403 291.224 30.8921 290.713 30.1495C290.156 29.3737 289.403 28.9891 288.46 28.9891C287.824 28.9891 287.241 29.2079 286.717 29.6323C286.2 30.0633 285.859 30.6269 285.702 31.3164C285.623 31.6414 285.578 31.9066 285.578 32.1121V34.0814C285.578 34.9368 285.84 35.6595 286.357 36.2563C286.874 36.8464 287.549 37.1448 288.388 37.1448C289.363 37.1448 290.123 36.7602 290.667 36.0044C291.211 35.2352 291.479 34.2339 291.479 32.9874ZM309.1 34.3467C309.1 35.7391 308.622 36.873 307.666 37.7416C306.617 38.6964 305.144 39.1738 303.264 39.1738C301.528 39.1738 300.133 38.8356 299.078 38.1526L299.674 35.9712C300.807 36.6541 302.058 36.9923 303.414 36.9923C304.39 36.9923 305.15 36.7669 305.694 36.3226C306.238 35.8783 306.512 35.2816 306.512 34.539C306.512 33.8759 306.283 33.3189 305.838 32.8614C305.392 32.4105 304.652 31.9862 303.611 31.6016C300.781 30.5341 299.366 28.9692 299.366 26.9204C299.366 25.581 299.864 24.4803 300.866 23.6249C301.862 22.7696 303.185 22.3386 304.836 22.3386C306.303 22.3386 307.528 22.5972 308.504 23.1144L307.856 25.2495C306.938 24.7455 305.91 24.5002 304.75 24.5002C303.84 24.5002 303.119 24.7256 302.608 25.1765C302.176 25.581 301.96 26.0717 301.96 26.6552C301.96 27.2983 302.209 27.8354 302.707 28.2531C303.139 28.6377 303.918 29.0621 305.052 29.513C306.44 30.0832 307.462 30.7396 308.118 31.5022C308.772 32.2647 309.1 33.2128 309.1 34.3467ZM317.681 29.1085H314.825V34.8307C314.825 36.2895 315.329 37.0122 316.338 37.0122C316.803 37.0122 317.183 36.9724 317.491 36.8928L317.563 38.882C317.052 39.0744 316.384 39.1738 315.552 39.1738C314.53 39.1738 313.731 38.8555 313.154 38.2256C312.578 37.5957 312.29 36.5348 312.29 35.0496V29.1085H310.594V27.1458H312.29V24.9842L314.832 24.2084V27.1458H317.687L317.681 29.1085ZM330.526 32.941C330.526 34.7512 330.015 36.2431 328.993 37.4034C327.926 38.6035 326.505 39.2003 324.729 39.2003C323.019 39.2003 321.657 38.6235 320.641 37.483C319.626 36.3359 319.122 34.8838 319.122 33.1399C319.122 31.3099 319.646 29.8179 320.694 28.6509C321.742 27.4839 323.151 26.9071 324.925 26.9071C326.635 26.9071 328.011 27.4839 329.046 28.6311C330.028 29.7384 330.526 31.1772 330.526 32.941ZM327.841 33.0007C327.841 31.9199 327.611 30.9916 327.146 30.2224C326.603 29.2875 325.829 28.8167 324.821 28.8167C323.786 28.8167 322.987 29.2875 322.449 30.2224C321.985 30.9982 321.755 31.9398 321.755 33.0537C321.755 34.1345 321.985 35.0628 322.449 35.8386C323.007 36.7735 323.793 37.2443 324.801 37.2443C325.791 37.2443 326.563 36.7669 327.127 35.8187C327.605 35.0164 327.841 34.0814 327.841 33.0007ZM338.944 29.4466C338.675 29.4002 338.4 29.3737 338.124 29.3737C337.214 29.3737 336.513 29.7185 336.016 30.4147C335.583 31.0313 335.367 31.8071 335.367 32.7421V38.9284H332.78V30.8523C332.78 29.6124 332.76 28.3791 332.707 27.1392H334.961L335.052 29.3936H335.124C335.4 28.6178 335.826 27.9945 336.422 27.5238C336.958 27.1126 337.62 26.8938 338.295 26.8938C338.538 26.8938 338.747 26.9137 338.944 26.9403V29.4466ZM350.518 32.4769C350.525 32.8747 350.491 33.2725 350.426 33.6637H342.658C342.684 34.8307 343.064 35.7192 343.784 36.3359C344.439 36.8862 345.284 37.1581 346.326 37.1581C347.479 37.1581 348.527 36.9724 349.47 36.6011L349.876 38.4179C348.775 38.9019 347.472 39.1473 345.972 39.1473C344.164 39.1473 342.749 38.6102 341.714 37.536C340.686 36.4618 340.168 35.0164 340.168 33.2062C340.168 31.4292 340.646 29.9506 341.61 28.7703C342.612 27.5105 343.974 26.8806 345.684 26.8806C347.361 26.8806 348.631 27.5105 349.496 28.7703C350.171 29.7715 350.518 31.0048 350.518 32.4769ZM348.049 31.8005C348.068 31.0248 347.898 30.355 347.544 29.7848C347.099 29.0554 346.404 28.6908 345.481 28.6908C344.636 28.6908 343.948 29.0488 343.417 29.7582C342.985 30.3219 342.73 31.0048 342.651 31.7939L348.049 31.8005Z" fill="white"/>
<path d="M257.103 16.802C256.383 16.802 255.76 16.7688 255.243 16.7091V8.79878C255.97 8.68604 256.704 8.62635 257.437 8.63299C260.404 8.63299 261.774 10.1116 261.774 12.5185C261.767 15.2968 260.156 16.802 257.103 16.802ZM257.542 9.6475C257.142 9.6475 256.802 9.67403 256.52 9.73365V15.7411C256.671 15.7676 256.966 15.7742 257.378 15.7742C259.324 15.7742 260.431 14.6536 260.431 12.5583C260.424 10.6819 259.422 9.6475 257.542 9.6475ZM266.031 16.8616C264.361 16.8616 263.273 15.5952 263.273 13.8778C263.273 12.0875 264.381 10.8145 266.123 10.8145C267.774 10.8145 268.881 12.0212 268.881 13.785C268.881 15.5952 267.741 16.8616 266.031 16.8616ZM266.077 11.756C265.16 11.756 264.571 12.6246 264.571 13.8447C264.571 15.0382 265.173 15.9068 266.064 15.9068C266.961 15.9068 267.557 14.9785 267.557 13.8181C267.564 12.6379 266.974 11.756 266.077 11.756ZM278.418 10.9338L276.63 16.729H275.464L274.724 14.216C274.54 13.5993 274.383 12.9761 274.265 12.3462H274.239C274.147 12.9761 273.97 13.6126 273.78 14.216L272.994 16.729H271.815L270.132 10.9338H271.442L272.09 13.6855C272.241 14.3419 272.372 14.9586 272.477 15.5488H272.503C272.595 15.0581 272.752 14.4547 272.975 13.6988L273.787 10.9338H274.822L275.601 13.6391C275.791 14.2955 275.942 14.9387 276.06 15.5488H276.092C276.178 14.952 276.302 14.3221 276.479 13.6391L277.174 10.9338H278.418ZM285.014 16.729H283.744V13.4004C283.744 12.3727 283.357 11.8621 282.59 11.8621C281.838 11.8621 281.32 12.5185 281.32 13.281V16.729H280.049V12.5914C280.049 12.0809 280.036 11.5306 280.003 10.9338H281.124L281.182 11.8289H281.215C281.556 11.2123 282.25 10.8145 283.03 10.8145C284.228 10.8145 285.021 11.7428 285.021 13.2612L285.014 16.729ZM288.519 16.729H287.248V8.2749H288.519V16.729ZM293.163 16.8616C291.493 16.8616 290.405 15.5952 290.405 13.8778C290.405 12.0875 291.512 10.8145 293.255 10.8145C294.905 10.8145 296.013 12.0212 296.013 13.785C296.013 15.5952 294.866 16.8616 293.163 16.8616ZM293.209 11.756C292.291 11.756 291.702 12.6246 291.702 13.8447C291.702 15.0382 292.305 15.9068 293.195 15.9068C294.093 15.9068 294.689 14.9785 294.689 13.8181C294.689 12.6379 294.106 11.756 293.209 11.756ZM301.03 16.729L300.938 16.0593H300.905C300.519 16.5964 299.949 16.8549 299.229 16.8549C298.2 16.8549 297.473 16.1256 297.473 15.1509C297.473 13.7187 298.698 12.9827 300.82 12.9827V12.8766C300.82 12.114 300.421 11.7295 299.635 11.7295C299.071 11.7295 298.573 11.8754 298.141 12.1605L297.886 11.3118C298.417 10.9802 299.078 10.8079 299.851 10.8079C301.344 10.8079 302.104 11.6035 302.104 13.2015V15.3366C302.104 15.9201 302.13 16.3775 302.189 16.7223L301.03 16.729ZM300.853 13.8447C299.438 13.8447 298.731 14.1895 298.731 15.0117C298.731 15.6217 299.097 15.9201 299.602 15.9201C300.251 15.9201 300.853 15.4227 300.853 14.7398V13.8447ZM308.268 16.729L308.209 15.8007H308.176C307.81 16.5036 307.194 16.8616 306.336 16.8616C304.954 16.8616 303.932 15.635 303.932 13.9044C303.932 12.0942 304.993 10.8145 306.44 10.8145C307.207 10.8145 307.75 11.0731 308.052 11.6035H308.078V8.2749H309.349V15.1641C309.349 15.7211 309.362 16.2516 309.394 16.7223H308.268V16.729ZM308.084 13.3209C308.084 12.5119 307.554 11.8157 306.742 11.8157C305.798 11.8157 305.222 12.6644 305.222 13.8513C305.222 15.0183 305.818 15.8206 306.716 15.8206C307.514 15.8206 308.084 15.1178 308.084 14.2823V13.3209ZM317.432 16.8616C315.762 16.8616 314.674 15.5952 314.674 13.8778C314.674 12.0875 315.781 10.8145 317.524 10.8145C319.174 10.8145 320.281 12.0212 320.281 13.785C320.281 15.5952 319.142 16.8616 317.432 16.8616ZM317.478 11.756C316.561 11.756 315.971 12.6246 315.971 13.8447C315.971 15.0382 316.574 15.9068 317.465 15.9068C318.362 15.9068 318.958 14.9785 318.958 13.8181C318.965 12.6379 318.375 11.756 317.478 11.756ZM327.127 16.729H325.856V13.4004C325.856 12.3727 325.469 11.8621 324.703 11.8621C323.949 11.8621 323.432 12.5185 323.432 13.281V16.729H322.161V12.5914C322.161 12.0809 322.148 11.5306 322.115 10.9338H323.235L323.295 11.8289H323.327C323.668 11.2123 324.363 10.8145 325.142 10.8145C326.341 10.8145 327.133 11.7428 327.133 13.2612V16.729H327.127ZM335.681 11.9019H334.28V14.7133C334.28 15.4294 334.522 15.7875 335.02 15.7875C335.242 15.7875 335.432 15.7609 335.583 15.7278L335.616 16.7025C335.367 16.7953 335.04 16.8484 334.627 16.8484C333.624 16.8484 333.022 16.2914 333.022 14.8194V11.8953H332.183V10.9272H333.022V9.86626L334.273 9.48172V10.9272H335.675L335.681 11.9019ZM342.422 16.729H341.151V13.4269C341.151 12.3926 340.764 11.8688 339.998 11.8688C339.336 11.8688 338.728 12.3196 338.728 13.2413V16.7356H337.456V8.2749H338.728V11.756H338.754C339.153 11.1261 339.736 10.8145 340.476 10.8145C341.688 10.8145 342.428 11.7692 342.428 13.281L342.422 16.729ZM349.319 14.1431H345.5C345.527 15.2371 346.241 15.8604 347.302 15.8604C347.865 15.8604 348.389 15.7676 348.847 15.5885L349.044 16.4836C348.501 16.7223 347.865 16.8417 347.125 16.8417C345.337 16.8417 344.276 15.6946 344.276 13.9242C344.276 12.1472 345.363 10.8145 346.981 10.8145C348.441 10.8145 349.359 11.9085 349.359 13.5662C349.371 13.7519 349.359 13.9508 349.319 14.1431ZM348.153 13.2214C348.153 12.3262 347.708 11.6963 346.896 11.6963C346.162 11.6963 345.586 12.3395 345.507 13.2214H348.153Z" fill="white"/>
</g>
<defs>
<clipPath id="clip0_307_220">
<rect width="176.147" height="51.4725" fill="white"/>
</clipPath>
<clipPath id="clip1_307_220">
<rect width="173.029" height="51.4725" fill="white" transform="translate(197.971)"/>
</clipPath>
</defs>
</svg>
