<?xml version="1.0" encoding="utf-8"?>
<!-- Generator: Adobe Illustrator 26.3.0, SVG Export Plug-In . SVG Version: 6.00 Build 0)  -->
<svg version="1.1" id="Camada_1" xmlns="http://www.w3.org/2000/svg" xmlns:xlink="http://www.w3.org/1999/xlink" x="0px" y="0px"
	 viewBox="0 0 390 320" style="enable-background:new 0 0 390 320;" xml:space="preserve">
<style type="text/css">
	.st0{display:none;fill-rule:evenodd;clip-rule:evenodd;fill:#27A73B;}
	.st1{fill-rule:evenodd;clip-rule:evenodd;fill:#06CB61;}
	.st2{fill:#636363;}
	.st3{enable-background:new    ;}
	.st4{fill:#FFFFFF;}
	.st5{fill:#06CB61;}
	.st6{display:none;fill:#080909;}
</style>
<path class="st0" d="M1027.5,632.4l-4.7-11.5l2.4-12.3l10.4-10.2l101-57.9l14.9-1.4c0,0,10.2,4.2,10.7,5.8s51.1,89,51.1,89H1028
	L1027.5,632.4z"/>
<g>
	<path class="st1" d="M196.5,80.4c0.1-4.9,6.7-5.1,7.7-1c1,4.2-3.9,8.4-4.9,12.1c-2.7-2.9-9-4.3-10-8.5
		C188.2,78.9,194.1,76.1,196.5,80.4"/>
	<path class="st2" d="M214.7,74.6c-1-3.7-3.3-6.7-6.6-8.7c-2.2-1.3-4.6-1.9-7.1-1.9c-1.2,0-2.5,0.2-3.7,0.5l-75.9,20.2
		c-3.7,1-6.7,3.3-8.7,6.6c-1.9,3.3-2.4,7.1-1.4,10.8l3.1,11.7c0.2-0.1,0.4-0.3,0.6-0.4c0.5-0.3,1-0.6,1.5-0.9
		c0.1-0.1,0.4-0.3,0.5-0.4c0.5-0.5,1-0.9,1.6-1.1l-2.7-10.1c-0.7-2.5-0.3-5,1-7.3c1.3-2.2,3.4-3.8,5.8-4.5L198.5,69
		c0.8-0.2,1.6-0.3,2.5-0.3c1.7,0,3.3,0.4,4.8,1.3c2.2,1.3,3.8,3.4,4.5,5.8l22.6,85.2h4.8L214.7,74.6z"/>
</g>
<g>
	<path class="st1" d="M241.7,82.4c2.2,0.1,3.9,1.7,3.8,3.7c0,1-0.5,1.8-1.2,2.4c0.4-0.2,0.9-0.3,1.4-0.2c1.9,0.1,3.5,1.8,3.4,3.8
		c-0.2,4.2-5.9,4.4-7.3,2c0.4,1.6,0.9,3.6,1.7,4.4l-2.4-0.1l-2.4-0.1c0.9-0.7,1.5-2.7,2.1-4.3c-1.7,2.3-7.3,1.6-7.2-2.6
		c0.1-2,1.7-3.6,3.7-3.5c0.5,0,1,0.1,1.4,0.4c-0.7-0.7-1.1-1.5-1-2.5C237.6,83.9,239.5,82.3,241.7,82.4"/>
	<path class="st2" d="M252.3,161l2.1-72.8c0.1-2.6-0.9-5.1-2.6-6.9c-1.8-1.9-4.2-3-6.8-3l-34.3-1l0.3-1.2c0.1-0.6,0.1-1.3-0.1-1.8
		l-0.5-1.4l34.8,1c3.8,0.1,7.3,1.7,9.8,4.4c2.6,2.7,3.9,6.3,3.8,10.1l-2.1,72.7L252.3,161L252.3,161z"/>
</g>
<g>
	<polygon class="st1" points="288,107.3 292.2,117.4 282.8,123 278.6,112.9 	"/>
	<path class="st2" d="M286.6,161l12.3-45.9c0.7-2.5,0.3-5-1-7.3s-3.3-3.8-5.8-4.5l-36.5-9.7l0.6-1.1c0.3-0.6,0.4-1.3,0.2-1.9
		l-0.7-1.8l37.6,10c7.6,2,12.1,9.8,10.1,17.4L291.5,161H286.6z"/>
</g>
<g class="st3">
	<path class="st4" d="M92.3,201.8l-0.3,2.5H69.5c-8.8,0-12.6-4.4-11.3-13.1l1.6-11.3c1.3-8.8,6.3-13.1,15-13.1h21.9l-0.4,2.5
		c-0.3,1.7-1.2,2.5-2.9,2.5H75.3c-5.4,0-8.5,2.7-9.3,8.1l-1.6,11.3c-0.8,5.4,1.6,8.1,7,8.1h18.8C91.8,199.3,92.6,200.2,92.3,201.8z"
		/>
	<path class="st4" d="M134.2,204.3h-3.7c-1.7,0-2.8-0.8-3.4-2.5l-2-6.3h-20.6l-3.8,6.3c-1,1.7-2.3,2.5-4,2.5h-3.7l22.8-37.5h6.3
		L134.2,204.3z M123.5,190.6l-5.6-17.1l-10.4,17.1H123.5z"/>
	<path class="st4" d="M171.3,201.8l-0.3,2.5h-22.5c-8.8,0-12.6-4.4-11.3-13.1l1.6-11.3c1.3-8.8,6.3-13.1,15-13.1h21.9l-0.4,2.5
		c-0.3,1.7-1.2,2.5-2.9,2.5h-18.1c-5.4,0-8.5,2.7-9.3,8.1l-1.6,11.3c-0.8,5.4,1.6,8.1,7,8.1h18.8
		C170.8,199.3,171.5,200.2,171.3,201.8z"/>
	<path class="st4" d="M217.2,166.8l-5.3,37.5h-3.8c-1.7,0-2.4-0.8-2.2-2.5l1.9-13.8h-25l-1.9,13.8c-0.2,1.7-1.1,2.5-2.8,2.5h-3.8
		l5.3-37.5h3.8c1.7,0,2.3,0.8,2.1,2.5l-1.9,13.8h25l1.9-13.8c0.2-1.7,1.2-2.5,2.9-2.5H217.2z"/>
	<path class="st4" d="M253.2,201.8l-0.3,2.5h-35.6l5.3-37.5h35l-0.4,2.5c-0.3,1.7-1.2,2.5-2.9,2.5h-26.3l-1.6,11.3h26.9l-0.7,5
		h-26.9l-1.6,11.3h26.9C252.8,199.3,253.5,200.2,253.2,201.8z"/>
	<path class="st4" d="M298.6,166.8l-0.4,2.5c-0.3,1.7-1.2,2.5-2.9,2.5h-13.8l-4.5,32.5h-6.3l4.5-32.5h-13.8c-1.7,0-2.4-0.8-2.1-2.5
		l0.4-2.5H298.6z"/>
	<path class="st4" d="M329.5,204.3h-3.7c-1.7,0-2.8-0.8-3.4-2.5l-2-6.3h-20.6l-3.8,6.3c-1,1.7-2.3,2.5-4,2.5h-3.7l22.8-37.5h6.3
		L329.5,204.3z M318.8,190.6l-5.6-17.1l-10.4,17.1H318.8z"/>
</g>
<g class="st3">
	<path class="st5" d="M178.2,222.4c-1,7.1-5.1,10.6-12.1,10.6h-19.4l-1.9,13.8c-0.2,1.7-1.1,2.5-2.8,2.5h-3.8l5.3-37.5h25.6
		C176.2,211.8,179.2,215.3,178.2,222.4z M172,222.4c0.5-3.8-1.1-5.6-4.8-5.6H149l-1.6,11.3h18.1C169.3,228,171.4,226.1,172,222.4z"
		/>
	<path class="st5" d="M191.1,214.3l-4.9,35h-3.8c-1.7,0-2.4-0.8-2.2-2.5l5-35h3.8C190.6,211.8,191.3,212.6,191.1,214.3z"/>
	<path class="st5" d="M217.3,230.5l13.1,18.8h-4.8c-1.7,0-3.1-0.8-4.3-2.5l-8.3-11.9l-11.6,11.9c-1.6,1.7-3.2,2.5-4.9,2.5h-4.8
		l18.3-18.8l-13.1-18.8h4.8c1.7,0,3,0.8,4.2,2.5l8.3,11.9l11.6-11.9c1.6-1.7,3.3-2.5,5-2.5h4.8L217.3,230.5z"/>
</g>
<rect y="0" class="st6" width="390" height="320"/>
<g>
	<path class="st2" d="M95.2,161.1h-5.3L81,145.8c-1.9-3.3-2.4-7.1-1.4-10.8s3.3-6.7,6.6-8.6l66.6-38.5c3.3-1.9,7.1-2.4,10.8-1.4
		s6.7,3.3,8.6,6.6l39.2,67.9h-5.3l-37.9-65.6c-1.3-2.2-3.3-3.8-5.8-4.5c-2.4-0.7-5.1-0.3-7.3,1l-66.6,38.5c-2.2,1.3-3.8,3.3-4.5,5.8
		s-0.3,5.1,1,7.3L95.2,161.1z"/>
	<path class="st2" d="M195.9,161.1l-26.3-45.5c-2.2,0.8-4.4,1.2-6.7,1.2c-5.8,0-11.1-2.5-14.7-7l-40.9,23.6c0.8,2.1,1.2,4.4,1.2,6.7
		c0,5.7-2.5,11-6.9,14.6l3.7,6.4h-4.8l-2.8-4.9c-0.8-1.4-0.5-3.2,0.7-4.2c2.6-2.3,4.8-5,5.6-8.4c0.7-3.2,0.4-6.4-0.8-9.2
		c-0.7-1.5-0.1-3.3,1.4-4.2l42.1-24.3c0.5-0.3,1.1-0.4,1.7-0.4c1,0,2,0.5,2.7,1.3c2.8,3.8,7.1,5.9,11.8,5.9c2,0,3.9-0.4,5.8-1.2
		c0.4-0.2,0.9-0.3,1.3-0.3c1.2,0,2.3,0.6,2.9,1.7l27.8,48.2L195.9,161.1L195.9,161.1z"/>
	<circle class="st5" cx="144.4" cy="143.1" r="9.9"/>
</g>
</svg>
