<?xml version="1.0" encoding="utf-8"?>
<!-- Generator: Adobe Illustrator 26.3.0, SVG Export Plug-In . SVG Version: 6.00 Build 0)  -->
<svg version="1.1" id="Camada_1" xmlns="http://www.w3.org/2000/svg" xmlns:xlink="http://www.w3.org/1999/xlink" x="0px" y="0px"
	 viewBox="0 0 500 164.3" style="enable-background:new 0 0 500 164.3;" xml:space="preserve">
<style type="text/css">
	.st0{fill:#1E1E1E;stroke:#3C3C3B;stroke-width:1.1832;stroke-miterlimit:10;}
	.st1{fill:#4AB05F;}
</style>
<path class="st0" d="M72.3,156.8L10.1,94.6c-6.6-6.6-6.6-17.2,0-23.7L72.3,8.6C78.8,2,89.5,2,96,8.6l62.2,62.2
	c6.6,6.6,6.6,17.2,0,23.7L96,156.8C89.5,163.4,78.8,163.4,72.3,156.8z"/>
<path class="st0" d="M182.2,156.7l-62.2-62.2c-6.6-6.6-6.6-17.2,0-23.7l62.2-62.2c6.6-6.6,17.2-6.6,23.7,0l62.2,62.2
	c6.6,6.6,6.6,17.2,0,23.7l-62.2,62.2C199.4,163.2,188.7,163.2,182.2,156.7z"/>
<path class="st0" d="M290.9,156.7l-62.2-62.2c-6.6-6.6-6.6-17.2,0-23.7l62.2-62.2c6.6-6.6,17.2-6.6,23.7,0l62.2,62.2
	c6.6,6.6,6.6,17.2,0,23.7l-62.2,62.2C308.1,163.2,297.4,163.2,290.9,156.7z"/>
<path class="st0" d="M404.5,156.7l-62.2-62.2c-6.6-6.6-6.6-17.2,0-23.7l62.2-62.2c6.6-6.6,17.2-6.6,23.7,0l62.2,62.2
	c6.6,6.6,6.6,17.2,0,23.7l-62.2,62.2C421.7,163.2,411,163.2,404.5,156.7z"/>
<g>
	<g>
		<g>
			<g>
				<path class="st1" d="M416.3,99.2c-8.2,0-15.2-6.8-17.3-16.7c-2.4-0.4-4.1-2.9-4.1-6.1c0-3.2,1.8-5.7,4.1-6.1
					c0.3-1.2,0.6-2.3,1-3.4l2.4,0.9c-0.5,1.2-0.8,2.6-1.1,4l-0.2,1.3l-1.5-0.3c-1.1,0-2.2,1.7-2.2,3.5s1,3.5,2.2,3.5l1.5-0.3
					l0.2,1.3c1.6,9.1,7.9,15.7,15,15.7s13.4-6.6,15-15.7l0.2-1.3l1.5,0.3c1.1,0,2.2-1.7,2.2-3.5s-1-3.5-2.2-3.5l-0.2,0l-1.3,0.2
					l-0.2-1.3c-0.3-1.4-0.6-2.7-1.1-4l2.4-0.9c0.4,1.1,0.7,2.2,1,3.4c2.4,0.4,4.1,2.9,4.1,6.1c0,3.2-1.8,5.7-4.1,6.1
					C431.5,92.4,424.5,99.2,416.3,99.2z"/>
			</g>
			<g>
				<path class="st1" d="M388.7,119.4h-2.6c0-6.3,5.9-9,11.7-11.5c5.9-2.6,11.5-5.2,11.5-11.3h2.6c0,7.8-6.9,10.9-13.1,13.6
					C393.4,112.7,388.7,114.8,388.7,119.4z"/>
			</g>
			<g>
				<path class="st1" d="M446.6,119.4H444c0-4.6-4.7-6.7-10.2-9.2c-6.1-2.7-13.1-5.8-13.1-13.6h2.6c0,6.1,5.6,8.6,11.5,11.3
					C440.6,110.4,446.6,113.1,446.6,119.4z"/>
			</g>
		</g>
		<g>
			<path class="st1" d="M437.3,110.8l-2.1-1.6c6.9-9.1,9.1-32.9,1.8-47.5c-4.4-8.9-11.4-13.4-20.7-13.4c-9.3,0-16.3,4.5-20.7,13.4
				c-7.3,14.7-5.1,38.4,1.8,47.5l-2.1,1.6c-7.4-9.8-10-34.4-2.1-50.2c4.8-9.7,12.8-14.9,23-14.9s18.2,5.1,23.1,14.8
				C447.3,76.4,444.7,101,437.3,110.8z"/>
		</g>
		<path class="st1" d="M431.7,67.4c0.5-3-0.3-6.4-1.1-9.6c1.6,2.9,3.3,5.9,3.7,9.6l0.2,1.3h-2.9L431.7,67.4z"/>
		<g>
			<path class="st1" d="M433,68.7h-28.3c-6.5,0-6.5,0-6.5-1.3h2.6h-1.3l0-1.3c0.4,0,33.2,0,33.5,0V68.7L433,68.7z"/>
		</g>
		<path class="st1" d="M402.1,57.8c-0.8,3.2-1.7,6.6-1.2,9.6l0.2,1.3h-2.9l0.2-1.3c0.2-1.8,0.8-3.5,1.5-5.1
			C400.4,60.7,401.3,59.2,402.1,57.8z"/>
		<path class="st1" d="M408.1,58.7c-0.2,1.5-0.2,2.9-0.1,4.4c0.1,1.4,0.2,2.9,0.4,4.3l-2.6,0.1c0.2-1.6,0.5-3,0.9-4.5
			C407.1,61.5,407.5,60,408.1,58.7z"/>
	</g>
	<g>
		<path class="st1" d="M416.3,117.4c-6.7,0-12.1-5.4-12.1-12.1h2.6c0,5.2,4.3,9.5,9.5,9.5c5.2,0,9.5-4.3,9.5-9.5h2.6
			C428.4,112,423,117.4,416.3,117.4z"/>
	</g>
</g>
<g>
	<g>
		<g>
			<path class="st1" d="M56.5,118.8h-2.6c0-6.3,5.9-9,11.7-11.5c5.9-2.6,11.5-5.2,11.5-11.3h2.6c0,7.8-6.9,10.9-13.1,13.6
				C61.3,112.1,56.5,114.2,56.5,118.8z"/>
		</g>
		<g>
			<path class="st1" d="M114.4,118.8h-2.6c0-4.6-4.7-6.7-10.2-9.2c-6.1-2.7-13.1-5.8-13.1-13.6h2.6c0,6.1,5.6,8.6,11.5,11.3
				C108.4,109.8,114.4,112.5,114.4,118.8z"/>
		</g>
		<g>
			<path class="st1" d="M98.2,117H70.1c-2.6,0-4.9-1.5-5.9-3.9l-1.3-3.1l2.4-1l1.3,3.1c0.6,1.4,2,2.3,3.5,2.3h28.2
				c1.5,0,2.9-0.9,3.5-2.3l1.3-3.1l2.4,1l-1.3,3.1C103.2,115.5,100.8,117,98.2,117z"/>
		</g>
	</g>
	<g>
		<path class="st1" d="M98.5,92.4c-0.9,0-1.8-0.1-2.7-0.2l0.4-2.6c4.5,0.7,5.9-0.6,6.6-2.2c0.6-1.2,0.5-2.2,0.3-4.6
			c-0.1-0.7-0.1-1.5-0.2-2.3c-0.3-3.4,0.3-5.3,0.8-6.9c0.4-1.4,0.8-2.5,0.7-4.6c0-0.9-0.4-8.9-6.7-13.7c-3.3-2.5-7.8-3.4-9.3-3.6
			l-0.3,0l-0.3-0.2c-2.1-1.3-4.3-2-6.5-2.1c-8.4-0.5-13.2,4.3-14.9,6.4c-3.3,4.2-4.5,8.8-3.5,13.7l0.1,0.5c0.2,1,0.6,2.5,0.5,4.5
			c-0.1,2.1-0.6,3.4-1,4.5c-0.2,0.6-0.4,1.1-0.4,1.5c-0.1,1,0.3,3.8,2.2,5.9c1.7,1.9,4.2,2.8,7.5,2.8v2.6c-4,0-7.2-1.2-9.4-3.7
			c-2.4-2.6-3-6.1-2.8-7.9c0.1-0.8,0.3-1.4,0.6-2.1c0.4-1,0.7-2,0.8-3.7c0.1-1.7-0.2-2.9-0.4-3.8l-0.1-0.5c-1.2-5.7,0.2-11,4.1-15.8
			c1.5-1.9,7.1-7.9,17.1-7.3c2.6,0.2,5.1,1,7.5,2.4c2.2,0.3,6.8,1.5,10.3,4.1c7.3,5.5,7.7,14.7,7.8,15.7c0.1,2.5-0.4,4-0.8,5.5
			c-0.5,1.6-0.9,3-0.7,6c0.1,0.8,0.1,1.6,0.2,2.3c0.3,2.5,0.4,4.1-0.5,6.1C103.7,91.6,101,92.4,98.5,92.4z"/>
	</g>
	<g>
		<path class="st1" d="M84.2,98.6c-8.5,0-15.7-7.3-17.5-17.8l-0.1-0.7l0.6-0.5c4.4-3.8,5-6.8,5.5-10.5c0.1-1.1,0.2-2,0.3-2.9
			c0.3-3.4,0.5-5.6,2.4-8.3c0.5-0.7,2.1-2.9,4.8-3.4c2.9-0.5,5.6,0.2,7.8,2c2.6,2.1,4.5,5.8,5.4,10.2c0.6-2.2,0.4-3.8,0.3-4.8
			c-0.1-0.9-0.3-2.1,0.8-2.7C95,58.8,96,59,97,59.5c1.5,0.9,4,3.3,4.6,10.1c2.3,0.5,4,3,4,6.1c0,3.2-1.8,5.7-4.1,6.1
			C99.3,91.8,92.3,98.6,84.2,98.6z M69.3,81C71.1,89.7,77.3,96,84.2,96c7.1,0,13.4-6.6,15-15.7l0.2-1.3l1.4,0.2
			c1.3,0,2.3-1.6,2.3-3.5c0-1.9-1-3.5-2.2-3.5l-0.2,0l-1.5,0.3L99.1,71c-0.3-5.6-1.9-8-3-9c0.3,1.9,0.4,5.3-2.6,9.9l-2.2,3.4
			l-0.1-4.1c-0.2-5.6-2.1-10.5-5-12.8c-1.6-1.3-3.6-1.8-5.8-1.5c-1.6,0.3-2.7,1.8-3.1,2.3c-1.6,2.2-1.7,3.9-2,7
			c-0.1,0.9-0.2,1.9-0.3,3C74.7,73.2,73.9,76.8,69.3,81z"/>
	</g>
</g>
<g>
	<g>
		<g>
			<g>
				<path class="st1" d="M272.5,118.1l-2.6-0.4c0.6-4.3,2.9-7.8,3.7-8.6l0.2-0.2l0.3-0.1c0.9-0.4,2.3-0.6,4-0.9
					c4.3-0.7,10.9-1.8,14.2-6.3l2.1,1.5c-3.9,5.3-11.1,6.5-15.9,7.3c-1.3,0.2-2.4,0.4-3.2,0.6C274.7,111.9,273,114.6,272.5,118.1z"
					/>
			</g>
		</g>
	</g>
	<g>
		<g>
			<g>
				<path class="st1" d="M333,118.1c-0.5-3.4-2.2-6.2-2.8-6.9c-0.7-0.2-1.8-0.4-3.2-0.6c-4.8-0.8-12-2-15.9-7.3l2.1-1.5
					c3.3,4.5,9.9,5.6,14.2,6.3c1.7,0.3,3.1,0.5,4,0.9l0.3,0.1l0.2,0.2c0.8,0.8,3.1,4.3,3.7,8.6L333,118.1z"/>
			</g>
		</g>
	</g>
	<g>
		<path class="st1" d="M302.7,108.9c-8.4,0-17.5-11-17.5-27.3c0-0.5,0-1.8,1.1-2.3c1.1-0.5,2,0.3,3.1,1.3c1,0.8,2.2,2,3.6,2.4
			c1.1-1.6,3.9-4.7,9.7-4.7s8.6,3.1,9.7,4.7c1.4-0.5,2.6-1.6,3.6-2.4c1.1-1,2-1.8,3.1-1.3c1.1,0.5,1.1,1.8,1.1,2.3
			C320.2,97.9,311.2,108.9,302.7,108.9z M287.9,82.7c0.4,14,8,23.6,14.9,23.6c6.9,0,14.5-9.6,14.9-23.6c-1.3,1.2-3.2,2.8-5.7,3.1
			l-1,0.1l-0.4-0.9c-0.1-0.2-1.9-4.1-7.9-4.1c-6,0-7.8,3.9-7.9,4.1l-0.4,0.9l-1-0.1C291.1,85.5,289.2,83.9,287.9,82.7z"/>
	</g>
	<g>
		<path class="st1" d="M319.4,81c-0.2,0-0.4,0-0.6-0.1l0-0.3l-1.3-0.3c0.1-0.3,0.1-0.6,0.2-1l0.2-1.3l1.5,0.3c1.1,0,2.2-1.7,2.2-3.5
			s-1-3.5-2.2-3.5l-1.5,0.3l-0.3-1.2c-0.4-2.4-1.2-4.7-2.2-6.7c-3.4,1.5-7.6,1.4-12,1.5h-0.7H302c-4.4,0-8.6,0-12-1.5
			c-1.1,2.1-1.8,4.3-2.2,6.7l-0.2,1.3l-1.5-0.3c-1.1,0-2.2,1.7-2.2,3.5s1,3.5,2.2,3.5l1.5-0.3l0.2,1.3c0.1,0.3,0.1,0.6,0.2,1
			l-1.3,0.3l0.1,0.3c-0.3,0.1-0.5,0.1-0.6,0.1c-2.7,0-4.8-2.7-4.8-6.1c0-3.2,1.8-5.7,4.1-6.1c0.6-2.7,1.6-5.2,2.9-7.5l0.6-1.1
			l1.1,0.6c3,1.7,7.1,1.7,11.9,1.7h0.7h0.7c4.8,0,8.9,0,12-1.7l1.1-0.6l0.6,1.1c1.3,2.3,2.3,4.8,2.9,7.5c2.4,0.4,4.1,2.9,4.1,6.1
			C324.2,78.3,322.1,81,319.4,81z"/>
	</g>
	<g>
		<path class="st1" d="M320.1,70.7l-2.3-1.3c1.5-2.7,1.7-8.3-0.8-12.6c-3.1-5.5-11-7.3-14.3-7.3c-3.3,0-11.2,1.8-14.3,7.3
			c-2.4,4.3-2.3,9.9-0.8,12.6l-2.3,1.3c-1.9-3.3-2.2-9.8,0.8-15.2c4-7,13.5-8.6,16.6-8.6c3.1,0,12.6,1.6,16.6,8.6
			C322.4,60.9,322,67.4,320.1,70.7z"/>
	</g>
	<g>
		<rect x="301.4" y="110.7" class="st1" width="2.6" height="2.3"/>
	</g>
	<g>
		<rect x="301.4" y="115.6" class="st1" width="2.6" height="2.3"/>
	</g>
</g>
<g>
	<g>
		<g>
			<g>
				<path class="st1" d="M166.4,119.3h-2.6c0-8.4,5.8-10,11-11.3c1.7-0.5,3.5-0.9,5.1-1.6l1.1,2.4c-1.8,0.8-3.7,1.3-5.5,1.8
					C170.4,111.8,166.4,112.8,166.4,119.3z"/>
			</g>
			<g>
				<path class="st1" d="M187.3,102.4l-2.4-1c0.6-1.5,0.9-3.4,0.9-5.7h2.6C188.3,98.4,188,100.5,187.3,102.4z"/>
			</g>
		</g>
	</g>
	<g>
		<path class="st1" d="M188.7,98c-6.1-2.4-10.8-8.8-12.2-16.8l2.5-0.5c1.2,7.1,5.3,12.8,10.6,14.8L188.7,98z"/>
	</g>
	<g>
		<path class="st1" d="M199.4,98l-1-2.4c5.3-2.1,9.4-7.8,10.6-14.8l2.5,0.5C210.2,89.2,205.5,95.6,199.4,98z"/>
	</g>
	<g>
		<path class="st1" d="M210.6,84c-1.4,0-2.7-0.7-3.4-1.2l-0.6-0.5l1.7-9.2c-0.7-1.3-2.1-4.4-1.2-6.5c0.4-1.1,0.8-2.2,1-2.9
			c-2-1.1-7.4-3.9-13.9-3.9c-6.5,0-12,2.7-13.9,3.9c0.2,0.7,0.5,1.8,1,2.9c0.9,2.1-0.6,5.3-1.2,6.5l1.7,9.2l-0.6,0.5
			c-1.1,0.8-3.5,2-5.5,0.6l-0.5-0.3l-1.3-10c-0.3-4.4-0.7-15,2.6-19.1c4.3-5.2,10.6-8.1,17.8-8.1c7.2,0,13.5,2.9,17.8,8.1
			c3.3,4.1,3,14.7,2.7,19.1L213.2,83l-0.5,0.3C212,83.8,211.3,84,210.6,84z M209.4,81c0.4,0.2,0.9,0.4,1.4,0.3l1.1-8.7
			c0.6-8.3-0.2-14.9-2.1-17.2c-3.8-4.7-9.3-7.1-15.8-7.1c-6.5,0-12,2.5-15.8,7.1c-1.9,2.3-2.7,8.9-2.1,17.2l1.1,8.6
			c0.5,0.1,1-0.1,1.4-0.3l-1.5-8.4l0.2-0.4c0.8-1.4,1.7-3.8,1.3-4.7c-0.8-2-1.3-4.1-1.3-4.2l-0.2-0.9L178,62
			c0.3-0.2,7.2-4.8,16.1-4.8s15.8,4.6,16.1,4.8l0.7,0.5l-0.2,0.9c0,0.1-0.5,2.2-1.3,4.2c-0.4,0.9,0.5,3.3,1.3,4.7l0.2,0.4L209.4,81z
			"/>
	</g>
	<g>
		<path class="st1" d="M194,103.2c-4.1,0-6.7-6.3-6.7-8.9c0-0.9,0.3-1.7,0.8-2.2c1-1,2.4-0.8,4.1-0.8c1.1,0.1,2.4,0.1,3.5,0
			c1.7-0.1,3.1-0.2,4.1,0.8c0.6,0.5,0.8,1.3,0.8,2.2C200.8,96.9,198.1,103.2,194,103.2z M190,94c0,0,0,0.1,0,0.3
			c0,1.9,2.1,6.3,4.1,6.3c2,0,4.1-4.4,4.1-6.3c0-0.3,0-0.3,0-0.3c-0.2-0.1-1.4-0.1-2.2,0c-1.2,0.1-2.6,0.1-3.8,0
			C191.4,93.9,190.2,93.8,190,94z"/>
	</g>
	<g>
		<path class="st1" d="M189,115.4l-10.5-7.8l7.3-7.4l10.1,6L189,115.4z M182.5,107.4l6,4.5l3.7-4.8l-5.9-3.5L182.5,107.4z"/>
	</g>
	<g>
		<g>
			<g>
				<path class="st1" d="M224.3,119.3h-2.6c0-6.4-4-7.5-9.1-8.8c-1.8-0.5-3.8-1-5.5-1.8l1.1-2.4c1.6,0.7,3.4,1.2,5.1,1.6
					C218.4,109.3,224.3,110.8,224.3,119.3z"/>
			</g>
			<g>
				<path class="st1" d="M200.8,102.4c-0.7-1.9-1.1-4-1.1-6.6h2.6c0,2.2,0.3,4.1,0.9,5.7L200.8,102.4z"/>
			</g>
		</g>
	</g>
	<g>
		<path class="st1" d="M199.1,115.4l-6.9-9.2l10.1-6l7.3,7.4L199.1,115.4z M195.9,107l3.7,4.8l6-4.5l-3.8-3.8L195.9,107z"/>
	</g>
</g>
</svg>
